<svg width="53" height="65" viewBox="0 0 53 65" fill="none" xmlns="http://www.w3.org/2000/svg">
<path fill-rule="evenodd" clip-rule="evenodd" d="M38.6953 51.3264L37.9261 48.4942L39.5436 36.5604L44.0222 29.1235C44.2883 28.6813 44.3299 28.1394 44.1303 27.6626L41.496 21.3463L43.5751 16.7557C47.4507 20.9143 49.638 26.3728 49.638 32.0555C49.638 40.067 45.3279 47.2819 38.6953 51.3264ZM32.7281 61.4732L29.4846 60.8722C29.3807 60.8518 29.2767 60.8416 29.1728 60.8416H23.9208C23.8168 60.8416 23.7129 60.8518 23.6089 60.8722L20.3633 61.4753L18.5378 56.8297C19.4527 57.115 20.3945 57.3493 21.353 57.5347C21.4632 57.5551 21.5713 57.5653 21.6795 57.5653C22.4675 57.5653 23.1702 57.0212 23.3282 56.2348C23.507 55.3423 22.9124 54.4764 22.0038 54.2991C20.4091 53.9935 18.8788 53.5248 17.4296 52.9197L21.719 36.4015C21.7813 36.159 21.7876 35.9084 21.7356 35.6639L18.8809 21.986C21.5526 21.4644 24.478 21.1486 26.501 21.1486C28.3723 21.1486 31.4162 21.4502 34.2043 21.984L31.1459 35.6415C31.0877 35.8982 31.0939 36.1652 31.1625 36.4198L35.6431 52.8912C34.1711 53.5106 32.6179 53.9894 30.9962 54.3011C30.0834 54.4764 29.4909 55.3423 29.6697 56.2368C29.8277 57.0233 30.5325 57.5673 31.3185 57.5673C31.4266 57.5673 31.5347 57.5571 31.6449 57.5347C32.6429 57.3432 33.6201 57.0946 34.5703 56.7971L32.7323 61.4753L32.7281 61.4732ZM3.36409 32.0555C3.36409 26.3402 5.57424 20.8572 9.49139 16.6885L11.5997 21.3442L8.96536 27.6626C8.76576 28.1394 8.80734 28.6813 9.07348 29.1235L13.552 36.5604L15.1571 48.3108L14.367 51.361C7.70123 47.3247 3.36409 40.0915 3.36409 32.0555ZM12.1319 6.34193L13.5021 8.26739C13.6539 8.48133 13.8556 8.65452 14.0905 8.77677L16.3464 9.9565L13.3607 17.1123L11.5581 13.131L12.1319 6.34193ZM18.3632 35.9533L17.3797 39.7471L16.8392 35.7903C16.808 35.5722 16.7352 35.3624 16.6188 35.1708L12.3918 28.1536L14.4648 23.1821C14.8182 23.0455 15.2029 22.9131 15.6166 22.7847L18.3632 35.9553V35.9533ZM33.2874 10.3722L36.9738 19.215C33.3976 18.3205 29.0272 17.8519 26.501 17.8519C24.11 17.8519 19.7833 18.292 16.1177 19.217L19.8186 10.3416C24.1786 9.05999 28.9337 9.07018 33.2874 10.3722ZM39.0051 8.78085C39.238 8.6586 39.4397 8.48337 39.5915 8.26943L40.9616 6.34397L41.5355 13.133L41.4939 13.2226L41.4918 13.2288L39.7329 17.1143L36.7472 9.95854L39.0031 8.78085H39.0051ZM36.2544 35.7943L35.6618 40.1709L34.5162 35.9573L37.4686 22.7746C37.8865 22.905 38.2754 23.0394 38.6288 23.1821L40.7017 28.1536L36.4748 35.1729C36.3604 35.3644 36.2856 35.5743 36.2544 35.7943ZM53 32.0555C53 25.0138 50.0684 18.2716 44.9245 13.3918L44.9224 13.2817L43.9286 1.513C43.8683 0.820246 43.3735 0.237515 42.6894 0.0561753C42.0033 -0.123127 41.2777 0.137676 40.8722 0.708183L37.0653 6.05668L34.6285 7.32809C29.4036 5.68381 23.6567 5.6777 18.4297 7.30976L16.0283 6.05668L12.2213 0.706145C11.8159 0.135639 11.0903 -0.123127 10.4041 0.0561753C9.71802 0.239552 9.22318 0.820246 9.16496 1.513L8.17112 13.2817V13.3021C2.96697 18.1922 0 24.9669 0 32.0555C0 41.9049 5.6886 50.7029 14.2485 55.0876L17.729 63.9427C18.0222 64.6864 18.8123 65.1224 19.6128 64.9696L24.0809 64.1383H29.0127L33.4808 64.9696C33.5848 64.99 33.6908 64.9981 33.7948 64.9981C34.4809 64.9981 35.1109 64.5886 35.3645 63.9427L38.8679 55.0265C47.3634 50.6234 53 41.86 53 32.0555Z" fill="white"/>
</svg>
