<svg width="65" height="65" viewBox="0 0 65 65" fill="none" xmlns="http://www.w3.org/2000/svg">
<path d="M61.9873 3.81157C61.9627 3.6931 61.9049 3.5841 61.8205 3.49741C61.7361 3.41072 61.6287 3.34993 61.5109 3.3222C53.6608 1.40225 35.5267 8.24332 25.6917 18.0711C23.9389 19.8095 22.3406 21.6971 20.9149 23.7126C17.8834 23.4383 14.852 23.6693 12.2709 24.7953C4.98229 28 2.86169 36.3698 2.26983 39.9628C2.23776 40.1597 2.25146 40.3613 2.30986 40.552C2.36826 40.7428 2.46979 40.9175 2.60659 41.0627C2.74339 41.2078 2.91178 41.3196 3.09871 41.3892C3.28564 41.4588 3.48609 41.4844 3.68452 41.4641L15.3875 40.1793C15.3956 41.062 15.4486 41.9438 15.5463 42.8211C15.6074 43.4275 15.8779 43.9936 16.3114 44.422L20.8428 48.9533C21.2715 49.3871 21.8382 49.6577 22.4451 49.7184C23.3172 49.8157 24.1936 49.8687 25.071 49.8772L23.7876 61.5701C23.7676 61.7683 23.7934 61.9684 23.863 62.155C23.9327 62.3417 24.0443 62.5098 24.1893 62.6464C24.3343 62.783 24.5087 62.8844 24.6991 62.9428C24.8895 63.0013 25.0909 63.0151 25.2875 62.9834C28.882 62.4059 37.2691 60.2853 40.4551 52.9982C41.581 50.4142 41.812 47.3986 41.5522 44.3816C43.5735 42.9572 45.4665 41.3589 47.2095 39.6048C57.0806 29.7886 63.8784 12.0529 61.9873 3.81157ZM38.4355 26.8884C37.5733 26.0264 36.9861 24.9281 36.7481 23.7324C36.5102 22.5366 36.6322 21.2972 37.0987 20.1708C37.5652 19.0443 38.3552 18.0816 39.3689 17.4042C40.3826 16.7268 41.5744 16.3653 42.7936 16.3653C44.0128 16.3653 45.2046 16.7268 46.2183 17.4042C47.232 18.0816 48.0221 19.0443 48.4886 20.1708C48.9551 21.2972 49.0771 22.5366 48.8391 23.7324C48.6012 24.9281 48.014 26.0264 47.1518 26.8884C46.5799 27.4615 45.9006 27.9162 45.1528 28.2264C44.4049 28.5366 43.6033 28.6963 42.7936 28.6963C41.984 28.6963 41.1823 28.5366 40.4345 28.2264C39.6867 27.9162 39.0074 27.4615 38.4355 26.8884V26.8884Z" stroke="#F7F7F7" stroke-width="4" stroke-linecap="round" stroke-linejoin="round"/>
<path d="M11.149 46.8573C9.70991 47.0339 8.37111 47.6863 7.34519 48.7108C4.80162 51.2631 4.56055 60.7155 4.56055 60.7155C4.56055 60.7155 14.0188 60.4745 16.5638 57.928C17.5925 56.9037 18.2459 55.5627 18.4188 54.1213" stroke="#F7F7F7" stroke-width="4" stroke-linecap="round" stroke-linejoin="round"/>
</svg>
