<svg width="392" height="385" viewBox="0 0 392 385" fill="none" xmlns="http://www.w3.org/2000/svg"><mask id="a" fill="#fff"><path fill-rule="evenodd" clip-rule="evenodd" d="M142.01 25c0-13.8071 11.193-25 25-25h199c13.807 0 25 11.1929 25 25v199c0 13.807-11.193 25-25 25h-117v111c0 13.807-11.193 25-25 25H25.0098C11.2026 385 .009766 373.807.009766 360V161c0-13.807 11.192834-25 25.000034-25H142.01V25zm163.155 62.1515c.002-1.6602-1.344-3.0066-3.004-3.0042l-114.224.1602c-2.671.0038-4.006 3.2329-2.117 5.1213l26.229 26.2292c1.171 1.172 1.171 3.071 0 4.243L94.2586 237.681c-1.1717 1.172-1.1717 3.072-.0001 4.243l53.1205 53.12c1.171 1.172 3.071 1.172 4.242 0l117.791-117.781c1.171-1.171 3.071-1.171 4.242 0l26.23 26.23c1.888 1.888 5.117.553 5.121-2.117l.16-114.2245z"/></mask><path fill-rule="evenodd" clip-rule="evenodd" d="M142.01 25c0-13.8071 11.193-25 25-25h199c13.807 0 25 11.1929 25 25v199c0 13.807-11.193 25-25 25h-117v111c0 13.807-11.193 25-25 25H25.0098C11.2026 385 .009766 373.807.009766 360V161c0-13.807 11.192834-25 25.000034-25H142.01V25zm163.155 62.1515c.002-1.6602-1.344-3.0066-3.004-3.0042l-114.224.1602c-2.671.0038-4.006 3.2329-2.117 5.1213l26.229 26.2292c1.171 1.172 1.171 3.071 0 4.243L94.2586 237.681c-1.1717 1.172-1.1717 3.072-.0001 4.243l53.1205 53.12c1.171 1.172 3.071 1.172 4.242 0l117.791-117.781c1.171-1.171 3.071-1.171 4.242 0l26.23 26.23c1.888 1.888 5.117.553 5.121-2.117l.16-114.2245z" fill="url(#paint0_linear_799_3717)"/><path d="M249.01 249v-4h-4v4h4zm-107-113v4h4v-4h-4zm160.151-51.8527l-.006-4 .006 4zm3.004 3.0042l4 .0056-4-.0056zm-117.228-2.844l-.006-4 .006 4zm-2.117 5.1213l-2.829 2.8285 2.829-2.8285zm26.229 26.2292l2.828-2.829-2.828 2.829zm0 4.243l-2.829-2.829 2.829 2.829zM94.2586 237.681l-2.8284-2.828 2.8284 2.828zm-.0001 4.243l2.8284-2.828-2.8284 2.828zm53.1205 53.12l2.828-2.828-2.828 2.828zm4.242 0l2.829 2.829-2.829-2.829zm117.791-117.781l-2.829-2.828 2.829 2.828zm4.242 0l-2.828 2.829 2.828-2.829zm26.23 26.23l2.828-2.829-2.828 2.829zm5.121-2.117l4 .005-4-.005zM167.01-4c-16.016 0-29 12.98373-29 29h8c0-11.598 9.402-21 21-21v-8zm199 0h-199v8h199v-8zm29 29c0-16.01626-12.984-29-29-29v8c11.598 0 21 9.402 21 21h8zm0 199V25h-8v199h8zm-29 29c16.016 0 29-12.984 29-29h-8c0 11.598-9.402 21-21 21v8zm-117 0h117v-8h-117v8zm4 107V249h-8v111h8zm-29 29c16.016 0 29-12.984 29-29h-8c0 11.598-9.402 21-21 21v8zm-199.0002 0H224.01v-8H25.0098v8zm-29.00003-29c0 16.016 12.98373 29 29.00003 29v-8c-11.598 0-21.00003-9.402-21.00003-21h-8zm0-199v199h8V161h-8zm29.00003-29c-16.01629 0-29.00003 12.984-29.00003 29h8c0-11.598 9.40203-21 21.00003-21v-8zm117.0002 0H25.0098v8H142.01v-8zm-4-107v111h8V25h-8zm164.156 63.1473c-.553.0007-1.002-.4481-1.001-1.0014l8 .0112c.006-3.8737-3.136-7.0153-7.01-7.0098l.011 8zm-114.224.1602l114.225-.1602-.012-8-114.224.1602.011 8zm.706-1.7071c.63.6295.185 1.7059-.706 1.7071l-.011-8c-6.231.0088-9.346 7.5433-4.94 11.9498l5.657-5.6569zm26.229 26.2286l-26.229-26.2286-5.657 5.6569 26.229 26.2287 5.657-5.657zm0 9.9c2.734-2.733 2.734-7.166 0-9.9l-5.657 5.657c-.39-.39-.39-1.023 0-1.414l5.657 5.657zM97.0869 240.51L214.877 122.729l-5.657-5.657L91.4302 234.853l5.6567 5.657zm0-1.414c.3906.39.3905 1.023 0 1.414l-5.6567-5.657c-2.7338 2.733-2.7339 7.166-.0001 9.9l5.6568-5.657zm53.1201 53.12l-53.1201-53.12-5.6569 5.657 53.12 53.12 5.657-5.657zm-1.414 0c.39-.391 1.024-.391 1.414 0l-5.657 5.657c2.734 2.733 7.166 2.733 9.9 0l-5.657-5.657zm117.79-117.781l-117.79 117.781 5.657 5.657 117.79-117.781-5.657-5.657zm9.9 0c-2.734-2.734-7.166-2.734-9.9 0l5.657 5.657c-.39.39-1.024.39-1.414 0l5.657-5.657zm26.229 26.229l-26.229-26.229-5.657 5.657 26.229 26.229 5.657-5.657zm-1.707.706c.001-.89 1.078-1.335 1.707-.706l-5.657 5.657c4.406 4.406 11.941 1.292 11.95-4.94l-8-.011zm.16-114.2241l-.16 114.2241 8 .011.16-114.2239-8-.0112z" fill="#E6E6E6" mask="url(#a)"/><path d="M292.932 93.4262c1.66-.0023 3.006 1.3441 3.004 3.0042l-.119 84.5236c-.004 2.671-3.233 4.006-5.121 2.117l-18.239-18.238c-1.174-1.174-3.077-1.172-4.248.005L140.903 292.796c-1.17 1.176-3.074 1.179-4.248.005l-39.4314-39.432c-1.1694-1.169-1.1718-3.064-.0054-4.237L224.546 121.153c1.166-1.172 1.164-3.068-.006-4.237l-18.249-18.2499c-1.889-1.8884-.554-5.1176 2.117-5.1213l84.524-.1186z" fill="url(#paint1_linear_799_3717)"/><defs><linearGradient id="paint0_linear_799_3717" x1="378.5" y1="-.000003" x2="112.51" y2="284" gradientUnits="userSpaceOnUse"><stop stop-color="#FD9A4A"/><stop offset="1" stop-color="#86ACB2"/></linearGradient><linearGradient id="paint1_linear_799_3717" x1="116" y1="271.5" x2="280" y2="107.5" gradientUnits="userSpaceOnUse"><stop stop-color="#8BACAE"/><stop offset="1" stop-color="#FD9A4A"/></linearGradient></defs></svg>