<svg width="40" height="40" viewBox="0 0 40 40" fill="none" xmlns="http://www.w3.org/2000/svg"><g clip-path="url(#clip0_799_2701)" fill="#495E6F"><path d="M24.9636 35.3155c-1.1712 0-2.1471-.976-2.1471-2.1471v-.4517c0-.3904.2928-.6832.6832-.6832.3903 0 .6831.2928.6831.6832v.4517c0 .3904.2928.7808.7808.7808.3903 0 .7807-.2928.7807-.7808v-2.1108c0-1.7567-1.4639-3.2206-3.2206-3.2206-.3903 0-.6831-.2928-.6831-.6832 0-.3903.2928-.6831.6831-.6831 2.5375 0 4.6845 2.0494 4.6845 4.6845v2.1108c-.0976 1.0735-.9759 2.0495-2.2446 2.0495zM15.7752 35.3155c1.1023 0 2.021-.9757 2.021-2.1464v-.4516c0-.3903-.2756-.683-.6431-.683-.3674 0-.643.2927-.643.683v.4516c0 .3902-.2756.7805-.7349.7805-.3675 0-.735-.2927-.735-.7805v-2.1102c0-1.7561 1.378-3.2196 3.0316-3.2196.3674 0 .643-.2927.643-.6829 0-.3903-.2756-.683-.643-.683-2.3885 0-4.4095 2.0489-4.4095 4.6831v2.1101c.0918 1.0732.9186 2.0489 2.1129 2.0489zM20.0842 25.9827c-1.9519 0-3.5134-1.5615-3.5134-3.5134 0-1.9518 1.5615-3.5133 3.5134-3.5133 1.9518 0 3.5133 1.5615 3.5133 3.5133.0976 1.9519-1.5615 3.5134-3.5133 3.5134zm0-5.758c-1.1712 0-2.1471.9759-2.1471 2.147 0 1.1712.9759 2.1471 2.1471 2.1471 1.1711 0 2.147-.9759 2.147-2.1471 0-1.1711-.9759-2.147-2.147-2.147zM35.8942 31.6431h-6.734c-.3904 0-.6831-.2928-.6831-.6832s.2927-.6831.6831-.6831h6.734c.3903 0 .6831.2927.6831.6831s-.2928.6832-.6831.6832zM27.9891 21.0053c-.1952 0-.488-.0976-.5855-.2928-.1952-.2927-.0976-.7807.1951-.9759l6.246-4.0013c.2928-.1952.7808-.0976.976.1952.1951.2927.0975.7807-.1952.9759l-6.246 4.0013c-.1952.0976-.2928.0976-.3904.0976zM20.084 17.0041c-.3903 0-.6831-.2928-.6831-.6832V9.3918c0-.39037.2928-.68315.6831-.68315.3904 0 .6832.29278.6832.68315v7.0267c0 .2928-.2928.5856-.6832.5856z"/><path d="M20.0841 10.0749c-1.3663 0-2.5375-1.17116-2.5375-2.53747S18.7178 5 20.0841 5s2.5374 1.17112 2.5374 2.53743c0 1.36631-1.1711 2.53747-2.5374 2.53747zm0-3.70859c-.5856 0-1.1712.48797-1.1712 1.17112 0 .58556.488 1.17112 1.1712 1.17112.5855 0 1.1711-.48797 1.1711-1.17112 0-.68315-.488-1.17112-1.1711-1.17112zM35.6988 17.8822c-1.3663 0-2.5374-1.1711-2.5374-2.5374 0-1.3663 1.1711-2.5374 2.5374-2.5374 1.3663 0 2.5374 1.1711 2.5374 2.5374 0 1.3663-1.0735 2.5374-2.5374 2.5374zm0-3.6109c-.5856 0-1.1711.4879-1.1711 1.1711 0 .5856.488 1.1711 1.1711 1.1711.5856 0 1.1711-.488 1.1711-1.1711 0-.6832-.4879-1.1711-1.1711-1.1711zM37.651 33.4973c-1.3664 0-2.5375-1.1711-2.5375-2.5374 0-1.3663 1.1711-2.5374 2.5375-2.5374 1.3663 0 2.5374 1.1711 2.5374 2.5374 0 1.4639-1.0735 2.5374-2.5374 2.5374zm0-3.6109c-.5856 0-1.1712.4879-1.1712 1.1711 0 .5855.488 1.1711 1.1712 1.1711.5855 0 1.1711-.488 1.1711-1.1711 0-.6832-.488-1.1711-1.1711-1.1711zM11.1056 31.6431H4.37163c-.39037 0-.68315-.2928-.68315-.6832s.29278-.6831.68315-.6831h6.73397c.3904 0 .6831.2927.6831.6831s-.2927.6832-.6831.6832zM12.2766 21.0053c-.0976 0-.2928 0-.3904-.0976l-6.24596-4.0013c-.29278-.1952-.39037-.6832-.19519-.9759.19519-.2928.68316-.3904.97594-.1952l6.24601 4.0013c.2927.1952.3903.6832.1952.9759-.1952.1952-.3904.2928-.5856.2928z"/><path d="M4.46907 17.8822c-1.36631 0-2.53743-1.1711-2.53743-2.5374 0-1.3663 1.17112-2.5374 2.53743-2.5374 1.36631 0 2.53743 1.1711 2.53743 2.5374 0 1.3663-1.17112 2.5374-2.53743 2.5374zm0-3.6109c-.58556 0-1.17112.4879-1.17112 1.1711 0 .5856.48797 1.1711 1.17112 1.1711.58556 0 1.17112-.488 1.17112-1.1711 0-.6832-.58556-1.1711-1.17112-1.1711zM2.51717 33.4973c-1.36631 0-2.537434-1.1711-2.537434-2.5374 0-1.3663 1.171124-2.5374 2.537434-2.5374 1.3663 0 2.53742 1.1711 2.53742 2.5374 0 1.4639-1.17112 2.5374-2.53742 2.5374zm0-3.6109c-.58557 0-1.17113.4879-1.17113 1.1711 0 .5855.48797 1.1711 1.17113 1.1711.58556 0 1.17112-.488 1.17112-1.1711 0-.6832-.58556-1.1711-1.17112-1.1711zM35.1133 36.6818H5.15215c-.39038 0-.68316-.2928-.68316-.6832s.29278-.6831.68316-.6831H35.1133c.3904 0 .6832.2927.6832.6831s-.3904.6832-.6832.6832zM29.0625 40H11.1053c-.3904 0-.6832-.2928-.6832-.6831 0-.3904.2928-.6832.6832-.6832h17.9572c.3903 0 .6831.2928.6831.6832 0 .3903-.2928.6831-.6831.6831z"/></g><defs><clipPath id="clip0_799_2701"><path fill="#fff" d="M0 0h40v40H0z"/></clipPath></defs></svg>