<svg width="40" height="40" viewBox="0 0 40 40" fill="none" xmlns="http://www.w3.org/2000/svg"><path d="M32.35 22.3268c3.8-.8038 6.65-4.1654 6.65-8.1846 0-4.67693-3.7269-8.40386-8.4038-8.40386-4.2385 0-7.6731 3.06923-8.3308 7.08846" stroke="#495E6F" stroke-width="2" stroke-miterlimit="10" stroke-linecap="round" stroke-linejoin="round"/><path d="M20.7308 38.4038c2.85 0 5.5538-.3653 7.8923-1.023 1.0231-.2923 1.7538-1.0231 2.0461-2.0462 1.0962-3.9461 1.7539-11.6192 1.7539-16.6615 0-2.0462-.0731-3.9462-.2923-5.8462H9.33076c-.21923 1.9-.29231 3.8-.29231 5.8462 0 5.0423.65769 12.7154 1.75385 16.6615.2923 1.0231 1.0231 1.7539 2.0462 2.0462 2.3384.6577 5.0423 1.023 7.8923 1.023zM32.423 20.1349h-3.6538M25.1154 20.1349H9.03845" stroke="#495E6F" stroke-width="2" stroke-miterlimit="10" stroke-linecap="round" stroke-linejoin="round"/><path d="M1 4.78851l11.6923 4.23847 4.0923 11.10772M26.9423 21.9615c1.009 0 1.8269-.8179 1.8269-1.8269s-.8179-1.827-1.8269-1.827-1.8269.818-1.8269 1.827.8179 1.8269 1.8269 1.8269z" stroke="#495E6F" stroke-width="2" stroke-miterlimit="10" stroke-linecap="round" stroke-linejoin="round"/><path d="M26.077 26.3463c0 .3293-.267.5962-.5962.5962-.3292 0-.5962-.2669-.5962-.5962 0-.3292.267-.5961.5962-.5961.3292 0 .5962.2669.5962.5961zM22.423 23.4232c0 .3293-.2669.5962-.5961.5962-.3293 0-.5962-.2669-.5962-.5962 0-.3292.2669-.5961.5962-.5961.3292 0 .5961.2669.5961.5961zM20.9178 31.046l.003.0085.0034.0083c.0281.0704.0202.1304.0073.1593-.0055.0124-.0111.0181-.0154.0214-.0035.0028-.0162.012-.0484.0173l-.158.0264-.0295.0294c-.0557-.0216-.1099-.0735-.1221-.1223l-.0064-.0257-.0091-.0248-3.0427-8.3167h.4675l2.9504 8.2189z" fill="#454545" stroke="#495E6F"/></svg>