<svg width="40" height="40" viewBox="0 0 40 40" fill="none" xmlns="http://www.w3.org/2000/svg"><path d="M13.5826 20.7827H8.41736M2.78271 9.82609c0 2.11301.39131 4.14781 1.09566 5.86961.46956 1.1739 1.8 1.9565 3.28695 1.9565h5.32178c1.4087 0 2.8174-.7826 3.2869-1.9565.7044-1.7218 1.0957-3.6783 1.0957-5.86961 0-2.11305-.3913-4.14783-1.0957-5.86957C15.3045 2.78261 13.974 2 12.4871 2H7.16532c-1.48695 0-2.81739.78261-3.28695 1.95652-.70435 1.72174-1.09566 3.75652-1.09566 5.86957zM17.6522 9.82599h-3.9131M10.6087 9.82599H2" stroke="#495E6F" stroke-width="2" stroke-miterlimit="10" stroke-linecap="round" stroke-linejoin="round"/><path d="M5.91309 17.6522l.7826 14.8696h6.26091l.7826-14.8696" stroke="#495E6F" stroke-width="2" stroke-miterlimit="10" stroke-linecap="round" stroke-linejoin="round"/><path d="M9.82605 32.5217v.3913c0 2.8174 2.26955 5.087 5.08695 5.087C17.7304 38 20 35.7304 20 32.913V18.8261c0-2.8174 2.2695-5.087 5.0869-5.087s5.087 2.2696 5.087 5.087v8.2174c0 2.5826 2.113 4.6956 4.6956 4.6956H38" stroke="#495E6F" stroke-width="2" stroke-miterlimit="10" stroke-linecap="round" stroke-linejoin="round"/></svg>