<svg width="40" height="40" viewBox="0 0 40 40" fill="none" xmlns="http://www.w3.org/2000/svg"><path d="M18.1227 20.1631c-1.2286 2.3454-1.42 4.5314-.335 5.361 1.3721 1.0212 4.2441-.5265 6.4301-3.4464 2.1859-2.9198 2.8401-6.1429 1.4838-7.1481-1.0849-.8137-3.1432 0-5.0419 1.8509" stroke="#495E6F" stroke-width="2" stroke-miterlimit="10" stroke-linecap="round" stroke-linejoin="round"/><path d="M7.06572 17.3867c-2.31356 6.6216-.95734 13.5463 3.94098 17.2161 6.3823 4.7707 16.3545 2.2019 22.2741-5.76 5.9354-7.9458 5.5525-18.2532-.8297-23.02388-4.8984-3.65384-11.9189-2.99966-17.5991 1.11689" stroke="#495E6F" stroke-width="2" stroke-miterlimit="10" stroke-linecap="round" stroke-linejoin="round"/><path d="M12.5225 18.9822c-1.6275 4.3878-1.0212 8.9192 1.8827 11.0732 1.803 1.3562 3.9411 1.3882 5.409 1.1648 3.2709-.4787 6.6215-2.6327 8.9511-5.7759 3.9729-5.3452 4.1165-12.2539.3191-15.094-1.803-1.35626-3.9411-1.38818-5.409-1.1648-1.9625.2872-3.957 1.1807-5.744 2.521" stroke="#495E6F" stroke-width="2" stroke-miterlimit="10" stroke-linecap="round" stroke-linejoin="round"/><path d="M5.11904 13.6372c3.94103 2.9358 9.17446 4.2442 10.72216 2.1699 1.5477-2.0742-1.1807-6.73324-5.1218-9.66907-3.94098-2.93582-5.37699-1.40409-6.92468.67014C2.24703 8.8824 1.19396 10.7013 5.11904 13.6372zM21.7448 20.2109L2.51831 5.85083" stroke="#495E6F" stroke-width="2" stroke-miterlimit="10" stroke-linecap="round" stroke-linejoin="round"/></svg>