<svg width="40" height="40" viewBox="0 0 40 40" fill="none" xmlns="http://www.w3.org/2000/svg"><g clip-path="url(#clip0_799_2744)" stroke="#495E6F" stroke-width="2" stroke-miterlimit="10" stroke-linecap="round" stroke-linejoin="round"><path d="M7.08004 22.1184c-3.15109 1.2928-5.41341 4.4439-5.41341 8.1605 0 4.9287 3.95906 8.8877 8.88767 8.8877 4.4439 0 8.0797-3.2319 8.8069-7.4333"/><path d="M21.8659 29.4709c7.5859 0 13.7355-6.1496 13.7355-13.7355 0-7.58592-6.1496-13.73552-13.7355-13.73552S8.13037 8.14948 8.13037 15.7354c0 7.5859 6.14963 13.7355 13.73553 13.7355z"/><path d="M21.8659 26.239c5.801 0 10.5037-4.7027 10.5037-10.5037 0-5.80097-4.7027-10.50361-10.5037-10.50361S11.3623 9.93433 11.3623 15.7353c0 5.801 4.7026 10.5037 10.5036 10.5037zM33.9855 39.1665c2.6774 0 4.8479-2.1705 4.8479-4.8478 0-2.6774-2.1705-4.8479-4.8479-4.8479s-4.8478 2.1705-4.8478 4.8479c0 2.6773 2.1704 4.8478 4.8478 4.8478z"/><path d="M18.634 18.1594c0 1.3735 1.0504 2.4239 2.4239 2.4239h1.616c1.3735 0 2.4239-1.0504 2.4239-2.4239 0-1.3736-1.0504-2.4239-2.4239-2.4239h-1.616c-1.3735 0-2.4239-1.0504-2.4239-2.424 0-1.3735 1.0504-2.4239 2.4239-2.4239h1.616c1.3735 0 2.4239 1.0504 2.4239 2.4239M21.866 20.5833v2.4239M21.866 8.46375v2.42395"/></g><defs><clipPath id="clip0_799_2744"><path fill="#fff" d="M0 0h40v40H0z"/></clipPath></defs></svg>