<svg width="40" height="40" viewBox="0 0 40 40" fill="none" xmlns="http://www.w3.org/2000/svg"><g clip-path="url(#clip0_799_2753)" stroke="#495E6F" stroke-width="2" stroke-miterlimit="10" stroke-linecap="round" stroke-linejoin="round"><path d="M21.9079 32.7034l-1.1452-8.5889M22.4091 36.9978l-.2148-2.1472M18.9736 9.79974l-.7158-5.72595M19.9037 16.9573l-.6442-5.0102M27.7054 30.2701l-5.2249-6.8712M18.1144 17.6728l-3.6503-4.8671M35.6502 26.9775l-12.0245-5.0102M17.0407 19.176L5.01624 14.1658M26.7748 19.7483l-2.8629.3579M36.7952 18.4602l-7.8732 1.002M16.7546 21.0369l-6.4417.7873M27.2042 15.3108l-4.0082 3.0777M17.4702 22.7546L7.16345 30.6278M25.2003 8.94073l-3.5072 8.30267M18.9733 23.8997l-2.362 5.4396M34.5764 9.51333c-1.5747 1.21677-3.865.93047-5.0818-.5726 1.2168 1.57467.9305 3.86497-.5726 5.08177 1.5746-1.2168 3.865-.9305 5.0818.5726-1.2168-1.5746-1.0021-3.865.5726-5.08177zM8.80974 5.29034c1.21676 1.57464.93046 3.86502-.71575 5.08176 1.57464-1.21674 3.86501-.93045 5.08181.7158-1.2168-1.57467-.9305-3.86505.7157-5.08181-1.6462 1.21676-3.865.85889-5.08176-.71575zM11.0284 33.276c1.861.7873 2.7199 2.863 1.9325 4.7239.7874-1.8609 2.863-2.7198 4.724-1.9325-1.861-.7873-2.7199-2.863-1.9326-4.7239-.7157 1.8609-2.8629 2.7198-4.7239 1.9325zM3.87109 22.6829l4.29446-.5725M6.30465 24.544l-.57259-4.2945M28.6359 35.0654l3.5071-2.5766M31.7133 35.4949l-2.6482-3.4356M24.9854 4.14532l3.9365 1.71779M26.0591 6.93665l1.7178-3.93659"/></g><defs><clipPath id="clip0_799_2753"><path fill="#fff" transform="translate(2.33325 2)" d="M0 0h36v36H0z"/></clipPath></defs></svg>