<svg width="76" height="20" viewBox="0 0 76 20" fill="none" xmlns="http://www.w3.org/2000/svg">
<path fill-rule="evenodd" clip-rule="evenodd" d="M11.558 6.37982L10.7329 7.95682L10.7334 7.95462L9.88277 6.37763C9.85696 6.32768 9.79006 6.26538 9.69802 6.37833L9.69902 6.37708C9.47437 6.62941 9.19037 6.82585 8.87093 6.9499C8.55149 7.07395 8.20593 7.12197 7.86331 7.08993C7.5207 7.05788 7.19104 6.94671 6.90207 6.76576C6.61309 6.58481 6.37324 6.33937 6.2027 6.05008C6.03215 5.76079 5.93588 5.43611 5.92199 5.10334C5.90811 4.77056 5.977 4.43943 6.12289 4.13777C6.26878 3.83612 6.48739 3.57277 6.76035 3.36987C7.0333 3.16696 7.35262 3.03044 7.69145 2.97177L7.61716 2.9811C7.04495 2.55804 6.61054 2.52512 6.49031 2.57999C4.83378 3.29771 4.47821 5.42671 6.42623 7.5184C6.43318 7.52808 6.43672 7.53966 6.43633 7.55144C6.43595 7.56322 6.43165 7.57457 6.42408 7.5838C6.41651 7.59303 6.40607 7.59966 6.3943 7.60271C6.38253 7.60575 6.37007 7.60505 6.35874 7.6007C3.67635 6.24811 4.12092 3.5166 4.33505 2.20095C4.38516 1.89302 4.42266 1.66264 4.40448 1.54567C4.33664 1.10515 4.07544 0.695747 3.89496 0.412871C3.85064 0.343398 3.81119 0.281556 3.78066 0.22876C3.76655 0.204688 3.75944 0.177365 3.7601 0.149697C3.76075 0.122029 3.76915 0.095051 3.7844 0.071633C3.79964 0.0482151 3.82116 0.0292332 3.84666 0.0167068C3.87217 0.00418035 3.90071 -0.00142206 3.92924 0.000495568C4.17717 0.0157153 4.60415 0.274065 5.17948 0.622175C6.42945 1.37849 8.37969 2.55851 10.7153 2.58932C13.0515 2.5585 15.0026 1.37789 16.2525 0.621602C16.8274 0.273781 17.2539 0.0157069 17.5013 0.000495568C17.5306 -0.00178555 17.5599 0.00383875 17.586 0.0167406C17.6121 0.0296425 17.634 0.0493143 17.6492 0.0735599C17.6645 0.0978055 17.6725 0.125671 17.6723 0.154045C17.6721 0.18242 17.6638 0.210187 17.6482 0.234247C17.6186 0.285175 17.5804 0.344897 17.5375 0.412046C17.3572 0.694336 17.0931 1.10789 17.0244 1.55116C17.0064 1.66728 17.0437 1.89649 17.0937 2.20313C17.3076 3.51635 17.7529 6.2497 15.0707 7.6029C15.0594 7.60724 15.0469 7.60795 15.0351 7.6049C15.0234 7.60186 15.0129 7.59523 15.0054 7.586C14.9978 7.57676 14.9935 7.56542 14.9931 7.55364C14.9927 7.54186 14.9963 7.53027 15.0032 7.52059C16.9512 5.42945 16.5957 3.30045 14.9391 2.58219C14.8189 2.53006 14.3845 2.56024 13.8123 2.98329L13.7828 2.97945C14.1195 3.04282 14.4356 3.18321 14.7047 3.38889C14.9739 3.59457 15.1883 3.85958 15.33 4.16178C15.4718 4.46399 15.5367 4.79461 15.5194 5.12605C15.5022 5.45749 15.4032 5.78012 15.2308 6.067C15.0584 6.35389 14.8175 6.5967 14.5284 6.77515C14.2392 6.95361 13.9101 7.06253 13.5685 7.09283C13.227 7.12312 12.8829 7.07391 12.565 6.9493C12.2471 6.82469 11.9646 6.6283 11.7412 6.37653L11.7486 6.38421C11.655 6.26624 11.5835 6.33099 11.558 6.37982ZM8.80921 3.91799C8.52779 3.76488 8.2043 3.69982 7.88314 3.73174C7.52542 3.76729 7.1913 3.92105 6.93708 4.16713C6.68286 4.4132 6.52407 4.73654 6.48748 5.08267C6.45462 5.39342 6.522 5.7064 6.68035 5.97862C6.8387 6.25084 7.08027 6.46896 7.37187 6.60302C7.66348 6.73708 7.99083 6.78051 8.30897 6.72735C8.62711 6.67419 8.92044 6.52704 9.14869 6.30611C9.37693 6.08518 9.52889 5.80131 9.58371 5.49347C9.63852 5.18563 9.5935 4.86891 9.45483 4.58682C9.31615 4.30473 9.09062 4.07109 8.80921 3.91799ZM14.71 5.97635C14.8679 5.7038 14.9346 5.39066 14.9011 5.07992C14.8637 4.73408 14.7044 4.41123 14.4499 4.1657C14.1954 3.92017 13.8613 3.76692 13.5038 3.73174C13.1825 3.70022 12.8591 3.76571 12.5778 3.91921C12.2966 4.07271 12.0714 4.30669 11.9331 4.58902C11.7948 4.87134 11.7503 5.18816 11.8056 5.49597C11.8609 5.80377 12.0134 6.08745 12.242 6.30805C12.4707 6.52865 12.7643 6.67534 13.0826 6.72799C13.4009 6.78063 13.7282 6.73664 14.0196 6.60205C14.311 6.46747 14.5522 6.24889 14.71 5.97635ZM6.46047 19.1068C7.11387 19.3875 7.79455 19.6044 8.49242 19.7543C8.84139 18.5223 9.31238 17.3256 9.89886 16.1811C11.0447 13.9543 12.6072 11.9523 14.5072 10.2764H11.4981C9.90748 11.9795 8.60001 13.9113 7.62248 16.0028L7.58505 16.0856C7.13492 17.065 6.75906 18.0747 6.46047 19.1068ZM6.52398 14.7117C6.92695 13.9157 7.37586 13.1422 7.8686 12.395H7.86407C7.13018 11.8722 6.59896 11.1262 6.35555 10.2764H3.53191C3.67983 11.1779 4.02282 12.0389 4.53843 12.8032C5.05404 13.5675 5.73066 14.2178 6.52398 14.7117ZM8.68005 11.2351L8.68297 11.2372H8.67844L8.68005 11.2351ZM9.44063 10.2764C9.17732 10.5896 8.92379 10.9091 8.68005 11.2351C8.33942 10.9828 8.06782 10.6537 7.88902 10.2764H9.44063ZM1.9423 10.2764H0.0424805C0.163356 11.9106 0.678889 13.4946 1.54762 14.901C2.41636 16.3073 3.61405 17.4968 5.04439 18.3738C5.27919 17.6055 5.55441 16.8493 5.86897 16.1081C4.8023 15.4855 3.895 14.6375 3.215 13.6276C2.53499 12.6177 2.0999 11.4721 1.9423 10.2764ZM11.3025 16.856C10.7892 17.8563 10.3715 18.8999 10.0548 19.9738C10.3111 19.9917 10.5694 20.0007 10.8295 20.0007C11.3254 20.0006 11.8207 19.9676 12.3119 19.9019C13.027 17.8148 14.1673 15.8876 15.6654 14.2342C17.1635 12.5808 18.989 11.2348 21.0341 10.2759H16.9611C14.5724 12.0144 12.635 14.2673 11.3025 16.856ZM21.3874 11.8024C18.0921 13.4424 15.5169 16.1751 14.1323 19.5008V19.5014C15.9294 18.9397 17.5439 17.934 18.8163 16.5838C20.0886 15.2336 20.9749 13.5855 21.3874 11.8024ZM49.6294 14.7601C50.3726 14.9655 51.1396 15.0681 51.9304 15.0681C52.845 15.0681 53.6216 14.9328 54.2599 14.6621C54.8983 14.3915 55.3747 14.0275 55.6891 13.5701C56.0131 13.1035 56.175 12.5901 56.175 12.0301C56.175 11.3768 55.9988 10.8588 55.6462 10.4761C55.3032 10.0935 54.8888 9.81346 54.4029 9.63613C53.9169 9.4588 53.2929 9.28146 52.5306 9.10413C51.797 8.94546 51.2491 8.7868 50.8871 8.62813C50.5345 8.46013 50.3583 8.20813 50.3583 7.87213C50.3583 7.53613 50.5107 7.26546 50.8156 7.06013C51.13 6.8548 51.6112 6.75213 52.2591 6.75213C53.1833 6.75213 54.1075 7.0088 55.0317 7.52213L55.7463 5.80013C55.2889 5.52013 54.7554 5.30546 54.1456 5.15613C53.5358 5.0068 52.9117 4.93213 52.2734 4.93213C51.3587 4.93213 50.5822 5.06746 49.9438 5.33813C49.315 5.6088 48.8433 5.97746 48.5289 6.44413C48.2145 6.90146 48.0573 7.4148 48.0573 7.98413C48.0573 8.63746 48.2288 9.16013 48.5718 9.55213C48.9243 9.94413 49.3436 10.2288 49.8295 10.4061C50.3154 10.5835 50.9395 10.7608 51.7017 10.9381C52.1971 11.0501 52.5878 11.1528 52.8736 11.2461C53.169 11.3395 53.4072 11.4655 53.5882 11.6241C53.7788 11.7735 53.8741 11.9648 53.8741 12.1981C53.8741 12.5155 53.7168 12.7721 53.4024 12.9681C53.088 13.1548 52.6021 13.2481 51.9447 13.2481C51.3539 13.2481 50.7632 13.1548 50.1725 12.9681C49.5817 12.7815 49.072 12.5341 48.6433 12.2261L47.8572 13.9341C48.305 14.2701 48.8957 14.5455 49.6294 14.7601ZM36.6879 5.10013V14.9001H34.7871L29.7993 8.95013V14.9001H27.5126V5.10013H29.4277L34.4012 11.0501V5.10013H36.6879ZM46.8011 13.0801V14.9001H39.0549V5.10013H46.6153V6.92013H41.3559V9.04813H46.0007V10.8121H41.3559V13.0801H46.8011ZM59.6898 6.94813H56.4884V5.10013H65.2065V6.94813H62.0051V14.9001H59.6898V6.94813ZM70.7321 5H67.3718V5.82892H68.5713V9H69.5241V5.82892H70.7321V5ZM74.6368 6.71566L74.6453 9H75.5386L75.5216 5H74.7474L73.3693 7.40964L71.9571 5H71.1745V9H72.0677V6.77349L73.1396 8.58554H73.5649L74.6368 6.71566Z" fill="white"/>
</svg>
