<svg width="12" height="16" viewBox="0 0 12 16" fill="none" xmlns="http://www.w3.org/2000/svg">
<path d="M10.6875 4.71875L7.40625 8L10.6875 11.3125C11.0938 11.6875 11.0938 12.3438 10.6875 12.7188C10.3125 13.125 9.65625 13.125 9.28125 12.7188L6 9.4375L2.6875 12.7188C2.3125 13.125 1.65625 13.125 1.28125 12.7188C0.875 12.3438 0.875 11.6875 1.28125 11.3125L4.5625 8L1.28125 4.71875C0.875 4.34375 0.875 3.6875 1.28125 3.3125C1.65625 2.90625 2.3125 2.90625 2.6875 3.3125L6 6.59375L9.28125 3.3125C9.65625 2.90625 10.3125 2.90625 10.6875 3.3125C11.0938 3.6875 11.0938 4.34375 10.6875 4.71875Z" fill="white"/>
</svg>
