<svg width="320" height="311" viewBox="0 0 320 311" fill="none" xmlns="http://www.w3.org/2000/svg"><path fill-rule="evenodd" clip-rule="evenodd" d="M104.24 17.1424l9.994 7.7559 4.98-2.0626-13.217-10.3231L109.45.361328l-5.044 2.089452-2.583 9.40422c-.505 1.8001-1.17 4.3107-1.194 4.4344l-.097.0402-1.6743-4.0419-2.6654-6.43486-4.3007 1.78139 9.3754 22.63507 4.301-1.7814-2.746-6.6288 1.418-4.7167zM72.5062 48.9589l-3.8361 3.8361-9.3798-3.1431-.8909.9404-1.1632 1.1632 6.2367 6.2367-3.2916 3.2916-17.3241-17.3241 5.6674-5.6675c3.9351-3.935 8.3899-3.9845 11.8299-.5445 2.4254 2.4254 2.8956 5.222 1.6087 7.9444l10.543 3.2668zm-23.3133-5.2467l5.3457 5.3457 2.4996-2.4996c1.6829-1.6829 1.9552-3.4896.099-5.3457-1.7572-1.7572-3.7123-1.7325-5.519.0742l-2.4253 2.4254zM33.4232 93.5781l5.1297.42 1.8886-4.5593-25.796-1.7445-2.1698 5.2384 19.474 17.0073 1.8484-4.463-3.9377-3.298 3.5628-8.6009zm-4.4539-.4053l-2.5449 6.1438-4.6712-3.9049c-.8222-.706-1.6939-1.4413-2.3782-2.0186l-.0004-.0003c-.7343-.6194-1.2527-1.0567-1.2625-1.0804l.0402-.097c.0311-.0129 1.21.097 2.6632.2326.6772.0631 1.414.1318 2.1219.1962l6.0319.5286zM.5 160.643H25v-8.925c0-6.895-4.585-11.41-12.145-11.41S.5 144.858.5 151.858v8.785zm20.125-4.655H4.875v-3.85c0-3.99 2.38-7.14 8.05-7.14 5.425 0 7.7 3.15 7.7 7.105v3.885zM219.782 30.7482l-4.3-1.7814 3.951-9.5391-8.537-3.536-3.951 9.5391-4.301-1.7814 9.376-22.63504 4.301 1.78139-3.697 8.92465 8.537 3.536 3.696-8.92466 4.301 1.78139-9.376 22.63507zm36.192 9.4712c-5.742 5.7417-5.693 12.2754-.941 17.0272 4.752 4.7517 11.286 4.8012 17.027-.9405 5.742-5.7417 5.717-12.3001.966-17.0519-4.752-4.7517-11.311-4.7765-17.052.9652zm3.341 3.2916c3.885-3.8855 7.771-3.9103 10.567-1.1137 2.797 2.7966 2.772 6.6822-1.138 10.5925-3.91 3.9103-7.796 3.935-10.592 1.1384-2.797-2.7966-2.748-6.7069 1.163-10.6172zm28.32 65.681l-2.076-5.012 6.493-7.4632-.528-1.183-.629-1.5198-8.149 3.3753-1.781-4.3007 22.635-9.3758 3.067 7.4049c2.13 5.1414.471 9.2763-4.024 11.1383-3.169 1.312-5.933.676-7.955-1.554l-7.053 8.49zm13.769-19.531l-6.985 2.893 1.353 3.266c.911 2.1988 2.476 3.1417 4.901 2.1371 2.296-.9509 3.021-2.7667 2.044-5.1272l-1.313-3.1689zm-.349 52.439c-5.145.91-6.615 5.11-6.615 9.24 0 5.355 2.415 8.47 7.175 8.47 5.11 0 6.58-3.675 7.56-7l.105-.356c.884-2.992 1.488-5.034 3.745-5.034 1.715 0 2.66 1.12 2.66 3.43 0 2.485-1.085 3.85-3.29 4.375l1.225 4.445c4.445-1.015 6.265-4.375 6.265-8.785 0-5.145-2.485-8.225-6.93-8.225-5.005 0-6.51 3.78-7.525 6.86-.154.466-.288.931-.419 1.384-.645 2.234-1.196 4.146-3.466 4.146-1.96 0-2.94-1.4-2.94-3.745 0-2.73 1.33-4.445 3.675-4.76l-1.225-4.445zm-20.519 67.742l6.094-14.713 22.635 9.376-6.041 14.584-4.042-1.675 4.26-10.282-4.948-2.05-3.214 7.761-4.01-1.661 3.215-7.761-5.594-2.317-4.313 10.412-4.042-1.674zm-71.92 74.794c-.091-2.69 1.063-5.024 3.844-6.176 3.46-1.433 6.924.163 9.054 5.304 2.049 4.947.916 8.523-2.705 10.023-2.813 1.165-5.105.296-6.691-1.244l-3.735 2.873c2.651 3.107 6.953 4.621 11.933 2.558 6.079-2.518 8.665-8.438 5.531-16.005-3.174-7.663-9.222-10.008-15.204-7.53-4.818 1.996-6.978 6.111-6.667 10.793l4.64-.596zm-42.448 1.258v24.5h-7.84c-5.425 0-8.715-2.905-8.715-8.155 0-5.04 3.29-8.085 8.715-8.085h3.185v-8.26h4.655zm-4.655 20.195v-7.805h-3.185c-2.73 0-4.06 1.365-4.06 3.885 0 2.555 1.365 3.92 4.06 3.92h3.185zm-58.935-28.618l.42-5.129-4.5592-1.889-1.7445 25.796 5.2387 2.17 17.007-19.474-4.463-1.849-3.298 3.938-8.601-3.563zm-.405 4.454l6.144 2.545-3.905 4.671c-.706.823-1.442 1.695-2.019 2.379l-.002.003c-.619.732-1.055 1.25-1.079 1.259l-.097-.04c-.012-.031.097-1.209.233-2.662v-.001c.063-.677.132-1.414.196-2.122l.529-6.032zm-36.897-36.861c2.9204 2.92 4.8508 6.929 1.8562 11.211l-4.0093-2.277c1.4354-1.881 1.1632-4.034-.7672-5.965-1.6582-1.658-3.3411-1.955-4.727-.569-1.6053 1.605-.6435 3.348.4803 5.383.2276.412.4619.837.6829 1.275 1.4602 2.895 3.0688 6.632-.4702 10.171-3.1431 3.143-7.0782 2.723-10.7163-.915-3.1183-3.119-4.2072-6.782-1.7819-10.642l4.0093 2.277c-1.1879 1.93-.9899 3.662.7672 5.419 1.6335 1.634 3.0936 1.758 4.3063.545 1.5958-1.596.5786-3.467-.912-6.208-.0583-.107-.1173-.216-.1769-.326-1.6582-3.044-3.2174-6.682.396-10.295 3.3658-3.366 7.2761-2.871 11.0626.916zM194.902 204.779l-2.196-8.224 4.617-34.653 12.784-21.595c.759-1.284.878-2.858.308-4.242l-7.519-18.341 5.935-13.33c11.062 12.076 17.305 27.926 17.305 44.427 0 23.263-12.302 44.214-31.234 55.958zm-17.033 29.464l-9.258-1.746c-.297-.059-.594-.089-.89-.089h-14.992c-.296 0-.593.03-.89.089l-9.264 1.751-5.211-13.489c2.612.828 5.3 1.509 8.036 2.047.314.059.623.089.932.089 2.249 0 4.255-1.58 4.706-3.864.51-2.591-1.187-5.106-3.781-5.62-4.551-.888-8.919-2.248-13.056-4.006l12.243-47.964c.178-.704.196-1.432.048-2.142l-8.149-39.717c7.627-1.515 15.977-2.432 21.751-2.432 5.342 0 14.03.876 21.989 2.426l-8.73 39.658c-.167.745-.149 1.52.047 2.26l12.789 47.828c-4.201 1.799-8.635 3.189-13.264 4.095-2.605.508-4.296 3.023-3.786 5.62.451 2.284 2.463 3.864 4.706 3.864.309 0 .617-.03.932-.095 2.849-.556 5.638-1.278 8.35-2.142l-5.246 13.584-.012-.005zm-83.8166-85.422c0-16.596 6.3086-32.517 17.4896-44.622l6.018 13.519-7.519 18.347c-.57 1.384-.451 2.958.308 4.242l12.784 21.595 4.581 34.12-2.255 8.857c-19.027-11.72-31.4066-32.724-31.4066-56.058zm25.0266-74.6657l3.911 5.5911c.434.6212 1.009 1.1241 1.68 1.4791l6.439 3.4256-8.522 20.7789-5.146-11.5611 1.638-19.7136zm17.787 85.9837l-2.807 11.016-1.543-11.489c-.089-.633-.297-1.243-.63-1.799l-12.065-20.376 5.917-14.436c1.009-.397 2.107-.781 3.288-1.154l7.84 38.244v-.006zm42.599-74.2809l10.523 25.6769c-10.208-2.597-22.683-3.958-29.894-3.958-6.825 0-19.175 1.278-29.638 3.964l10.564-25.7717c12.445-3.7214 26.018-3.6918 38.445.0888zm16.321-4.6208c.665-.355 1.24-.8638 1.674-1.485l3.911-5.591 1.638 19.7136-.119.2603-.006.0177-5.021 11.2831-8.522-20.779 6.439-3.4197h.006zm-7.852 78.4407l-1.691 12.708-3.27-12.235 8.427-38.28c1.193.379 2.303.77 3.312 1.184l5.917 14.436-12.066 20.382c-.326.556-.54 1.166-.629 1.805zm47.799-10.857c0-20.447-8.368-40.025-23.051-54.1947l-.006-.3195-2.836-34.1734c-.173-2.0116-1.585-3.7037-3.538-4.2303-1.958-.5206-4.029.2367-5.187 1.8933L190.249 73.327l-6.956 3.6919c-14.914-4.7746-31.317-4.7923-46.237-.0532l-6.855-3.6387-10.867-15.5365c-1.157-1.6566-3.228-2.408-5.187-1.8874-1.958.5325-3.37 2.2187-3.537 4.2303l-2.836 34.1734v.0591C92.9189 108.565 84.45 128.238 84.45 148.821c0 28.6 16.237 54.147 40.671 66.879l9.935 25.713c.836 2.16 3.092 3.426 5.377 2.982l12.753-2.414h14.078l12.753 2.414c.297.059.6.083.896.083 1.959 0 3.757-1.189 4.481-3.065l10-25.89c24.25-12.786 40.339-38.232 40.339-66.702z" fill="#FD9A4A"/></svg>