<svg width="152" height="190" viewBox="0 0 152 190" fill="none" xmlns="http://www.w3.org/2000/svg"><path fill-rule="evenodd" clip-rule="evenodd" d="M110.902 149.779l-2.196-8.224 4.617-34.653 12.784-21.5949c.759-1.2838.878-2.8576.308-4.2421l-7.519-18.3409 5.935-13.3298c11.062 12.0755 17.305 27.9256 17.305 44.4266 0 23.2631-12.302 44.2141-31.234 55.9581zm-17.033 29.464l-9.2583-1.746c-.2967-.059-.5934-.089-.8902-.089H68.7293c-.2967 0-.5934.03-.8902.089l-9.2641 1.751-5.2108-13.489c2.6113.828 5.2998 1.509 8.0357 2.047.3146.059.6232.089.9318.089 2.2492 0 4.2552-1.58 4.7062-3.864.5104-2.591-1.1869-5.106-3.7804-5.62-4.552-.888-8.92-2.248-13.0565-4.006l12.2434-47.964c.1781-.704.1959-1.432.0475-2.142l-8.1484-39.7172c7.6261-1.5146 15.9763-2.4316 21.7509-2.4316 5.3412 0 14.0297.8756 21.9882 2.4257l-8.73 39.6581c-.1662.745-.1484 1.52.0475 2.26l12.7889 47.828c-4.2013 1.799-8.6346 3.189-13.2637 4.095-2.6054.508-4.2967 3.023-3.7864 5.62.4511 2.284 2.463 3.864 4.7063 3.864.3086 0 .6172-.03.9317-.095 2.8487-.556 5.6381-1.278 8.3503-2.142l-5.2464 13.584-.0118-.005zM10.0524 93.8209c0-16.5956 6.3086-32.5168 17.4897-44.6218l6.0179 13.519-7.5194 18.3469c-.5697 1.3845-.451 2.9583.3086 4.2421l12.7835 21.5949 4.5816 34.12-2.2552 8.857c-19.0268-11.72-31.4067-32.724-31.4067-56.0581zm25.0269-74.6656l3.911 5.5911c.4332.6212 1.0089 1.1241 1.6795 1.4791l6.4392 3.4256-8.5223 20.7786-5.1454-11.5608 1.638-19.7136zm17.7864 85.9837l-2.8071 11.016-1.543-11.489c-.0891-.633-.2968-1.243-.6291-1.799L35.8211 82.4909l5.917-14.4361c1.0089-.3964 2.1068-.781 3.2878-1.1537l7.8398 38.2439v-.006zm42.5997-74.2809l10.5226 25.6774c-10.208-2.5974-22.6829-3.9581-29.8936-3.9581-6.825 0-19.1752 1.2779-29.6382 3.964l10.5639-25.7721c12.4451-3.7214 26.0179-3.6918 38.4453.0888zm16.3206-4.6208c.665-.355 1.24-.8638 1.674-1.485l3.911-5.591 1.638 19.7136-.119.2603-.006.0177-5.021 11.2827-8.522-20.7786 6.439-3.4197h.006zm-7.852 78.4407l-1.691 12.708-3.2702-12.235L107.4 66.8715c1.193.3786 2.303.7691 3.312 1.1833l5.917 14.4361-12.066 20.3821c-.326.556-.54 1.166-.629 1.805zm47.799-10.8571c0-20.4472-8.368-40.0248-23.051-54.1946l-.006-.3195-2.836-34.17343c-.173-2.01159-1.585-3.7037-3.538-4.230261-1.958-.520647-4.029.236661-5.187 1.893261L106.249 18.327l-6.9557 3.6919c-14.914-4.7746-31.3177-4.7923-46.2377-.0532L46.201 18.327 35.3345 2.79046C34.1772 1.13385 32.1059.382462 30.1475.903109c-1.9585.532481-3.371 2.218671-3.5371 4.230261L23.7735 39.3068v.0591C8.91885 53.5654.449951 73.2376.449951 93.8209c0 28.6001 16.237449 54.1471 40.670849 66.8791l9.9348 25.713c.8368 2.16 3.092 3.426 5.3769 2.982l12.7538-2.414h14.0773l12.7537 2.414c.2968.059.5995.083.8962.083 1.9585 0 3.7565-1.189 4.4805-3.065l10-25.89c24.25-12.786 40.339-38.232 40.339-66.7021z" fill="#FD9A4A"/></svg>