<svg width="91" height="63" viewBox="0 0 91 63" fill="none" xmlns="http://www.w3.org/2000/svg"><path fill-rule="evenodd" clip-rule="evenodd" d="M10.335 5.52c-2.93336 2.34667-5.04003 5.7333-6.32003 10.16-1.28 4.3733-1.92 9.6267-1.92 15.76 0 9.2267 1.6 16.4267 4.8 21.6C10.1483 58.2133 15.295 60.8 22.335 60.8c4.96 0 8.9066-1.1733 11.84-3.52 2.9866-2.3467 5.12-5.7067 6.4-10.08 1.3333-4.3733 2-9.6267 2-15.76 0-9.28-1.6534-16.5067-4.96-21.68C34.3616 4.58667 29.2683 2 22.335 2c-5.0134 0-9.0134 1.17333-12 3.52zm28.969 3.16887C42.8934 14.3082 44.575 21.9635 44.575 31.44c0 6.2634-.6791 11.7206-2.0838 16.3328-1.3726 4.6834-3.7047 8.4248-7.0739 11.0746-3.3865 2.706-7.818 3.9526-13.0823 3.9526-7.6047 0-13.4527-2.8429-17.13308-8.6953l-.00395-.0063-.0039-.0063C1.72227 48.4794.09497 40.8602.09497 31.44c0-6.2609.652011-11.7129 1.99962-16.3187 1.36846-4.7307 3.66897-8.50542 6.99099-11.16304l.00685-.00548.0069-.00542C12.5368 1.24651 17.0172 0 22.335 0c7.5088 0 13.2947 2.85089 16.969 8.68887zM25.702 18.2636c-.4134-1.3551-.9396-2.1674-1.46-2.6325-.4811-.4301-1.0738-.6711-1.907-.6711-.9094 0-1.5346.2551-2.0183.681-.5185.4566-1.0339 1.2531-1.4199 2.5927l-.0026.0088c-.8248 2.8143-1.2792 7.1711-1.2792 13.1975 0 6.0785.4542 10.4595 1.2779 13.273.3806 1.2736.8867 2.0287 1.398 2.4637.4823.4103 1.1166.6633 2.0441.6633.852 0 1.4535-.2398 1.9327-.6536.5132-.4432 1.0307-1.2141 1.4387-2.5041.8678-2.7997 1.3486-7.1679 1.3486-13.2423 0-6.0225-.481-10.3666-1.3502-13.1672l-.0028-.0092zM27.615 45.28c-.96 3.04-2.72 4.56-5.28 4.56-2.6667 0-4.4534-1.52-5.36-4.56-.9067-3.0933-1.36-7.7067-1.36-13.84 0-6.08.4533-10.6667 1.36-13.76.9066-3.1467 2.6933-4.72 5.36-4.72 2.56 0 4.32 1.5733 5.28 4.72.96 3.0933 1.44 7.68 1.44 13.76 0 6.1333-.48 10.7467-1.44 13.84zM90.905 62h-44.64V49.9781l14.7291-14.8955c2.8669-2.9733 5.1365-5.4019 6.8161-7.2913 1.6484-1.8545 2.7136-3.3759 3.2928-4.5789l.0064-.0135.0067-.0133c.6092-1.2185.9089-2.4859.9089-3.8256 0-1.5684-.4497-2.3802-1.0265-2.8521-.7392-.6048-1.7784-.9879-3.2935-.9879-1.618 0-3.2803.4127-5.0064 1.2991-1.8046.9267-3.8137 2.2991-6.0298 4.1544l-1.5192 1.272-9.9881-11.7065 1.4429-1.30321c1.7158-1.54978 3.5407-2.98793 5.4739-4.31452 2.0519-1.46288 4.422-2.61115 7.0864-3.46268C61.9799.522064 65.2674.079999 68.985.079999c4.067 0 7.6675.732564 10.7274 2.287541 3.0543 1.4725 5.4758 3.53911 7.1857 6.21638C88.6754 11.229 89.545 14.2575 89.545 17.6c0 3.5096-.6631 6.7386-2.0296 9.6498l-.0033.0072-.0035.0072c-1.3303 2.7764-3.2687 5.5244-5.7706 8.2486l-.0069.0076-.007.0075c-2.4456 2.6086-5.4184 5.4991-8.9108 8.6693-.0014.0012-.0027.0025-.0041.0037L70.1549 46.64H90.905V62zm-25.36-13.36v-.48l5.92-5.44c3.4666-3.1467 6.4-6 8.8-8.56 2.4-2.6133 4.2133-5.2 5.44-7.76 1.2266-2.6133 1.84-5.5467 1.84-8.8 0-2.9867-.7734-5.6267-2.32-7.92-1.4934-2.34667-3.6267-4.18667-6.4-5.52-2.72-1.38667-6-2.08-9.84-2.08-3.5734 0-6.64.42667-9.2 1.28-2.5067.8-4.6934 1.86667-6.56 3.2-1.8667 1.28-3.6267 2.66666-5.28 4.16l7.4399 8.7199c2.2933-1.92 4.4267-3.3866 6.4001-4.3999 1.9733-1.0133 3.9466-1.52 5.92-1.52 1.8666 0 3.3866.48 4.56 1.44 1.1733.96 1.76 2.4267 1.76 4.4 0 1.6533-.3734 3.2267-1.12 4.72-.6934 1.44-1.8934 3.12-3.6 5.04-1.7067 1.92-4 4.3733-6.88 7.36L48.265 50.8V60h40.64V48.64h-23.36z" fill="#F7F5F0"/></svg>