<svg width="84" height="63" viewBox="0 0 84 63" fill="none" xmlns="http://www.w3.org/2000/svg"><path fill-rule="evenodd" clip-rule="evenodd" d="M11.155 5.52c-2.93329 2.34667-5.03996 5.7333-6.31996 10.16-1.28 4.3733-1.92 9.6267-1.92 15.76 0 9.2267 1.6 16.4267 4.8 21.6C10.9684 58.2133 16.115 60.8 23.155 60.8c4.96 0 8.9067-1.1733 11.84-3.52 2.9867-2.3467 5.12-5.7067 6.4-10.08 1.3334-4.3733 2-9.6267 2-15.76 0-9.28-1.6533-16.5067-4.96-21.68C35.1817 4.58667 30.0884 2 23.155 2c-5.0133 0-9.0133 1.17333-12 3.52zm28.969 3.16887C43.7135 14.3082 45.395 21.9635 45.395 31.44c0 6.2634-.679 11.7206-2.0837 16.3328-1.3727 4.6834-3.7047 8.4248-7.0739 11.0746-3.3865 2.706-7.818 3.9526-13.0824 3.9526-7.6046 0-13.45264-2.8429-17.13301-8.6953l-.00395-.0063-.00391-.0063C2.54234 48.4794.915039 40.8602.915039 31.44c0-6.2609.652011-11.7129 1.999621-16.3187 1.36845-4.7307 3.66897-8.50542 6.99099-11.16304l.00685-.00548.0069-.00542C13.3568 1.24651 17.8373 0 23.155 0c7.5089 0 13.2948 2.85089 16.969 8.68887zM26.5221 18.2636c-.4134-1.3551-.9397-2.1674-1.46-2.6325-.4811-.4301-1.0738-.6711-1.9071-.6711-.9094 0-1.5345.2551-2.0182.681-.5185.4566-1.0339 1.2531-1.4199 2.5927l-.0026.0088c-.8249 2.8143-1.2793 7.1711-1.2793 13.1975 0 6.0785.4542 10.4595 1.278 13.273.3805 1.2736.8867 2.0287 1.398 2.4637.4823.4103 1.1166.6633 2.044.6633.8521 0 1.4536-.2398 1.9328-.6536.5131-.4432 1.0306-1.2141 1.4386-2.5041.8679-2.7997 1.3486-7.1679 1.3486-13.2423 0-6.0225-.4809-10.3666-1.3501-13.1672l-.0028-.0092zM28.435 45.28c-.96 3.04-2.72 4.56-5.28 4.56-2.6666 0-4.4533-1.52-5.36-4.56-.9066-3.0933-1.36-7.7067-1.36-13.84 0-6.08.4534-10.6667 1.36-13.76.9067-3.1467 2.6934-4.72 5.36-4.72 2.56 0 4.32 1.5733 5.28 4.72.96 3.0933 1.44 7.68 1.44 13.76 0 6.1333-.48 10.7467-1.44 13.84zM83.085 62h-17.76V26.0416l.0015-.0385c.043-1.1179.0684-2.2918.0761-3.5218-.1342.1146-.2666.2263-.3972.3351l-.0074.0062-8.1305 6.6433-9.3109-11.6112L68.6194.879998H83.085V62zM65.4735 19.7459c.1093-.1002.2198-.2022.3315-.3059.7467-.7467 1.3334-1.3867 1.76-1.92-.0409.9422-.0819 1.9788-.1229 3.1097-.0123.3415-.0247.6916-.0371 1.0503 0 1.5467-.0266 3.0133-.08 4.4V60h13.76V2.88h-11.76L50.3654 18.1597 57.165 26.64l6.56-5.36c.5443-.4535 1.1271-.9649 1.7485-1.5341z" fill="#F7F5F0"/></svg>