<svg width="95" height="64" viewBox="0 0 95 64" fill="none" xmlns="http://www.w3.org/2000/svg">
<path fill-rule="evenodd" clip-rule="evenodd" d="M10.7749 5.9199C7.84158 8.26657 5.73491 11.6532 4.45491 16.0799C3.17491 20.4532 2.53491 25.7066 2.53491 31.8399C2.53491 41.0666 4.13491 48.2666 7.33491 53.4399C10.5882 58.6132 15.7349 61.1999 22.7749 61.1999C27.7349 61.1999 31.6816 60.0266 34.6149 57.6799C37.6016 55.3332 39.7349 51.9732 41.0149 47.5999C42.3482 43.2266 43.0149 37.9732 43.0149 31.8399C43.0149 22.5599 41.3616 15.3332 38.0549 10.1599C34.8016 4.98657 29.7082 2.3999 22.7749 2.3999C17.7616 2.3999 13.7616 3.57323 10.7749 5.9199ZM39.7439 9.08877C43.3334 14.7081 45.0149 22.3634 45.0149 31.8399C45.0149 38.1033 44.3358 43.5605 42.9312 48.1727C41.5585 52.8561 39.2265 56.5975 35.8572 59.2473C32.4708 61.9533 28.0392 63.1999 22.7749 63.1999C15.1703 63.1999 9.32224 60.357 5.64186 54.5046L5.63791 54.4983L5.63401 54.492C2.16222 48.8793 0.534912 41.2601 0.534912 31.8399C0.534912 25.579 1.18692 20.127 2.53453 15.5212C3.90299 10.7905 6.2035 7.01578 9.52552 4.35816L9.53237 4.35268L9.53927 4.34726C12.9767 1.64641 17.4571 0.399902 22.7749 0.399902C30.2838 0.399902 36.0697 3.2508 39.7439 9.08877ZM26.142 18.6635C25.7285 17.3084 25.2023 16.4961 24.682 16.031C24.2009 15.6009 23.6082 15.3599 22.7749 15.3599C21.8655 15.3599 21.2403 15.615 20.7567 16.0409C20.2381 16.4975 19.7227 17.294 19.3367 18.6336L19.3342 18.6424C18.5093 21.4567 18.0549 25.8135 18.0549 31.8399C18.0549 37.9184 18.5091 42.2994 19.3329 45.1129C19.7134 46.3865 20.2196 47.1416 20.7309 47.5766C21.2132 47.9869 21.8474 48.2399 22.7749 48.2399C23.6269 48.2399 24.2285 48.0001 24.7077 47.5863C25.2208 47.1431 25.7383 46.3722 26.1463 45.0822C27.0142 42.2825 27.4949 37.9143 27.4949 31.8399C27.4949 25.8174 27.0139 21.4733 26.1448 18.6727L26.142 18.6635ZM28.0549 45.6799C27.0949 48.7199 25.3349 50.2399 22.7749 50.2399C20.1082 50.2399 18.3216 48.7199 17.4149 45.6799C16.5082 42.5866 16.0549 37.9732 16.0549 31.8399C16.0549 25.7599 16.5082 21.1732 17.4149 18.0799C18.3216 14.9332 20.1082 13.3599 22.7749 13.3599C25.3349 13.3599 27.0949 14.9332 28.0549 18.0799C29.0149 21.1732 29.4949 25.7599 29.4949 31.8399C29.4949 37.9732 29.0149 42.5866 28.0549 45.6799ZM94.4649 50.9599H87.9049V62.3999H70.5449V50.9599H46.8649V38.5832L72.2876 1.2799H87.9049V36.5599H94.4649V50.9599ZM85.9049 38.5599V3.2799H73.3449L48.8649 39.1999V48.9599H72.5449V60.3999H85.9049V48.9599H92.4649V38.5599H85.9049ZM69.3449 25.6799L60.7849 38.5599H72.5449V30.3199C72.5449 29.2532 72.5716 27.9466 72.6249 26.3999C72.6536 25.5689 72.6822 24.7763 72.7109 24.0222C72.7149 23.9174 72.7188 23.8133 72.7228 23.71C72.7235 23.6925 72.7242 23.675 72.7249 23.6575C72.7449 23.1395 72.7649 22.6403 72.7849 22.1599C72.7905 22.0208 72.796 21.8874 72.8016 21.7599C72.8412 20.8533 72.8807 20.2403 72.9203 19.9208C72.9285 19.8545 72.9367 19.8009 72.9449 19.7599H72.5449C72.1841 20.6018 71.8233 21.3834 71.4625 22.1048C71.4621 22.1055 71.4617 22.1062 71.4614 22.107C71.3426 22.3445 71.2237 22.5755 71.1049 22.7999C70.9869 23.0097 70.8624 23.226 70.7314 23.4488C70.3299 24.1318 69.8677 24.8755 69.3449 25.6799ZM70.5919 27.417L64.5155 36.5599H70.5449V30.3199C70.5449 29.4865 70.5607 28.5182 70.5919 27.417Z" fill="#F7F5F0"/>
</svg>
