<svg width="92" height="63" viewBox="0 0 92 63" fill="none" xmlns="http://www.w3.org/2000/svg"><path fill-rule="evenodd" clip-rule="evenodd" d="M11.0349 5.52c-2.93331 2.34667-5.03998 5.7333-6.31998 10.16-1.28 4.3733-1.92 9.6267-1.92 15.76 0 9.2267 1.6 16.4267 4.8 21.6 3.25338 5.1733 8.39998 7.76 15.43998 7.76 4.96 0 8.9067-1.1733 11.84-3.52 2.9867-2.3467 5.12-5.7067 6.4-10.08 1.3334-4.3733 2-9.6267 2-15.76 0-9.28-1.6533-16.5067-4.96-21.68C35.0616 4.58667 29.9683 2 23.0349 2c-5.0133 0-9.0133 1.17333-12 3.52zm28.969 3.16887c3.5895 5.61933 5.271 13.27463 5.271 22.75113 0 6.2634-.6791 11.7206-2.0837 16.3328-1.3727 4.6834-3.7047 8.4248-7.074 11.0746-3.3864 2.706-7.8179 3.9526-13.0823 3.9526-7.6046 0-13.45265-2.8429-17.13303-8.6953l-.00395-.0063-.0039-.0063C2.42223 48.4794.794922 40.8602.794922 31.44c0-6.2609.652008-11.7129 1.999618-16.3187C4.163 10.3906 6.46351 6.61588 9.78553 3.95826l.00685-.00548.0069-.00542C13.2367 1.24651 17.7171 0 23.0349 0c7.5089 0 13.2948 2.85089 16.969 8.68887zM26.402 18.2636c-.4135-1.3551-.9397-2.1674-1.46-2.6325-.4811-.4301-1.0738-.6711-1.9071-.6711-.9094 0-1.5345.2551-2.0182.681-.5185.4566-1.034 1.2531-1.42 2.5927l-.0025.0088c-.8249 2.8143-1.2793 7.1711-1.2793 13.1975 0 6.0785.4542 10.4595 1.278 13.273.3805 1.2736.8867 2.0287 1.398 2.4637.4823.4103 1.1165.6633 2.044.6633.8521 0 1.4536-.2398 1.9328-.6536.5131-.4432 1.0306-1.2141 1.4386-2.5041.8679-2.7997 1.3486-7.1679 1.3486-13.2423 0-6.0225-.481-10.3666-1.3501-13.1672l-.0028-.0092zM28.3149 45.28c-.96 3.04-2.72 4.56-5.28 4.56-2.6666 0-4.4533-1.52-5.36-4.56-.9066-3.0933-1.36-7.7067-1.36-13.84 0-6.08.4534-10.6667 1.36-13.76.9067-3.1467 2.6934-4.72 5.36-4.72 2.56 0 4.32 1.5733 5.28 4.72.96 3.0933 1.44 7.68 1.44 13.76 0 6.1333-.48 10.7467-1.44 13.84zm56.9283-18.73c-1.1921 1.1656-2.5008 2.1628-3.9215 2.9927 2.1623.7895 4.0289 1.8811 5.5598 3.3077 2.935 2.6841 4.3234 6.324 4.3234 10.6696 0 3.5647-.9268 6.8445-2.7898 9.7893-1.9068 3.0139-4.8083 5.3244-8.5498 6.9947-3.7615 1.7032-8.4967 2.496-14.1004 2.496-3.4623 0-6.6104-.2745-9.4322-.8388-2.7907-.5582-5.4752-1.3686-8.0513-2.4327l-1.2365-.5107V42.9407l2.9252 1.5261c2.3038 1.202 4.7038 2.1026 7.2032 2.704 2.5476.5593 4.8485.8292 6.9116.8292 3.9837 0 6.1521-.6578 7.1223-1.4586 1.0926-.9117 1.6777-2.1351 1.6777-3.9014 0-1.0054-.2625-1.779-.7301-2.4136l-.0144-.0196-.0139-.0199c-.3715-.5306-1.1977-1.1479-2.8969-1.6199l-.007-.0019-.0071-.0021c-1.6021-.4577-4.0252-.723-7.3706-.723h-5.92V23.52h6c3.1747 0 5.4297-.2914 6.8876-.7774l.0084-.0028.0084-.0027c1.5919-.515 2.3676-1.1167 2.7128-1.6088.4628-.7208.7028-1.5319.7028-2.4883 0-1.3894-.4281-2.1344-1.051-2.6083-.7262-.5526-2.0525-.9917-4.309-.9917-2.4259 0-4.4707.436-6.1838 1.2475-1.9989.9468-3.4957 1.7368-4.5235 2.373l-1.6608 1.0282-8.126-12.45982 1.5898-1.10914c2.4589-1.71555 5.2878-3.12485 8.4677-4.24186C59.776.654575 63.8096.079999 68.4849.079999c6.1092 0 11.194 1.218781 15.0531 3.871921 3.9752 2.73297 5.9869 6.66648 5.9869 11.56808 0 4.4415-1.3799 8.1912-4.2817 11.03zM57.1249 3.76c-2.3249.81577-4.4315 1.7875-6.3197 2.91521-.0757.04524-.1511.09073-.2262.13647-.5003.30495-.985.62105-1.4541.94832l6 9.2c1.12-.6933 2.6934-1.52 4.72-2.48 2.0267-.96 4.3734-1.44 7.04-1.44 4.9067 0 7.36 1.8667 7.36 5.6 0 1.3333-.3466 2.5333-1.04 3.6-.6933 1.0133-1.9466 1.8133-3.76 2.4-1.76.5867-4.2666.88-7.52.88h-4v10.32h3.92c3.4134 0 6.0534.2667 7.92.8 1.92.5333 3.2534 1.3333 4 2.4.7467 1.0133 1.12 2.2133 1.12 3.6 0 2.2933-.8 4.1067-2.4 5.44-1.5466 1.28-4.3466 1.92-8.4 1.92-2.24 0-4.6933-.2933-7.36-.88-1.9504-.4681-3.8437-1.1074-5.68-1.9178-.6743-.2977-1.341-.6184-2-.9622v11.44c2.4534 1.0133 5.0134 1.7867 7.68 2.32 2.6667.5333 5.68.8 9.04.8 5.44 0 9.8667-.7733 13.28-2.32 3.4667-1.5467 6.0267-3.6267 7.68-6.24 1.6534-2.6133 2.48-5.52 2.48-8.72 0-3.8933-1.2266-6.96-3.68-9.2-1.7131-1.5989-3.9832-2.763-6.8104-3.4923-1.1161-.288-2.319-.5082-3.6087-.6606-.0203-.0024-.0406-.0047-.0609-.0071v-.24c.0096-.0024.0192-.0047.0288-.0071 1.2216-.3024 2.3769-.6977 3.4658-1.1859 1.99-.8921 3.7585-2.0945 5.3054-3.607 2.4534-2.4 3.68-5.6 3.68-9.6 0-4.2667-1.7066-7.57333-5.12-9.92-3.4133-2.34667-8.0533-3.52-13.92-3.52-4.5333 0-8.32.56-11.36 1.68z" fill="#F7F5F0"/></svg>