<svg width="141" height="174" viewBox="0 0 141 174" fill="none" xmlns="http://www.w3.org/2000/svg">
<path opacity="0.8" fill-rule="evenodd" clip-rule="evenodd" d="M102.944 137.397L100.898 129.815L105.201 97.8695L117.116 77.9613C117.824 76.7777 117.934 75.3269 117.403 74.0506L110.395 57.1423L115.926 44.8538C126.237 55.986 132.056 70.598 132.056 85.81C132.056 107.256 120.589 126.57 102.944 137.397ZM87.0692 164.559L78.4403 162.95C78.1637 162.896 77.8871 162.868 77.6106 162.868H63.6383C63.3618 162.868 63.0852 162.896 62.8086 162.95L54.1742 164.565L49.3176 152.129C51.7514 152.892 54.2572 153.52 56.8071 154.016C57.1003 154.07 57.3879 154.098 57.6755 154.098C59.7719 154.098 61.6415 152.641 62.0619 150.536C62.5376 148.147 60.9556 145.829 58.5384 145.355C54.2959 144.536 50.2248 143.282 46.3694 141.662L57.7806 97.444C57.9466 96.795 57.9632 96.1241 57.8249 95.4696L50.2303 58.8549C57.3381 57.4586 65.1207 56.6132 70.5028 56.6132C75.481 56.6132 83.5789 57.4204 90.9965 58.8495L82.8598 95.4096C82.7049 96.0968 82.7215 96.8113 82.9041 97.4931L94.8242 141.586C90.908 143.244 86.776 144.525 82.4616 145.36C80.0333 145.829 78.4569 148.147 78.9326 150.542C79.353 152.647 81.2281 154.103 83.3189 154.103C83.6066 154.103 83.8942 154.076 84.1874 154.016C86.8424 153.503 89.4422 152.838 91.97 152.041L87.0803 164.565L87.0692 164.559ZM8.94975 85.81C8.94975 70.5107 14.8296 55.8332 25.2507 44.6738L30.8595 57.1368L23.8512 74.0506C23.3202 75.3269 23.4309 76.7777 24.1389 77.9613L36.0534 97.8695L40.3236 129.324L38.2217 137.489C20.4882 126.684 8.94975 107.322 8.94975 85.81ZM32.2755 16.9769L35.9207 22.1312C36.3245 22.7039 36.861 23.1675 37.4861 23.4947L43.4876 26.6528L35.5445 45.8083L30.7489 35.1506L32.2755 16.9769ZM48.853 96.2441L46.2367 106.4L44.7985 95.8077C44.7155 95.2241 44.5219 94.6623 44.2122 94.1496L32.9669 75.3651L38.4817 62.0566C39.422 61.6912 40.4453 61.3366 41.5461 60.993L48.853 96.2495V96.2441ZM88.5571 27.7655L98.3643 51.4371C88.8503 49.0426 77.2234 47.7882 70.5028 47.7882C64.1417 47.7882 52.6309 48.9663 42.8791 51.4425L52.725 27.6836C64.3242 24.2529 76.9745 24.2802 88.5571 27.7655ZM103.768 23.5057C104.388 23.1784 104.924 22.7093 105.328 22.1366L108.973 16.9823L110.5 35.156L110.389 35.396L110.384 35.4124L105.704 45.8137L97.7613 26.6582L103.763 23.5057H103.768ZM96.4504 95.8187L94.874 107.534L91.8262 96.255L99.6807 60.9657C100.793 61.3148 101.827 61.6748 102.767 62.0566L108.282 75.3651L97.0367 94.1551C96.7325 94.6678 96.5334 95.2296 96.4504 95.8187ZM141 85.81C141 66.96 133.201 48.9117 119.516 35.8487L119.511 35.5542L116.867 4.0502C116.706 2.19574 115.39 0.635809 113.57 0.150377C111.745 -0.329601 109.814 0.368549 108.736 1.89575L98.6076 16.2133L92.1249 19.6167C78.2245 15.2151 62.9359 15.1988 49.03 19.5677L42.6413 16.2133L32.5134 1.8903C31.4347 0.363094 29.5043 -0.329601 27.6789 0.150377C25.8536 0.641263 24.5371 2.19574 24.3823 4.0502L21.7383 35.5542V35.6087C7.89326 48.699 0 66.8345 0 85.81C0 112.176 15.1338 135.728 37.9064 147.465L47.1659 171.17C47.9459 173.161 50.0478 174.328 52.1774 173.919L64.0643 171.693H77.1847L89.0716 173.919C89.3481 173.973 89.6302 173.995 89.9068 173.995C91.7321 173.995 93.4081 172.899 94.083 171.17L103.403 147.302C126.004 135.515 141 112.056 141 85.81Z" fill="white"/>
</svg>
